<svg width="159" height="107" viewBox="0 0 159 107" fill="none" xmlns="http://www.w3.org/2000/svg">
<path d="M45.8202 57.2482C45.8681 59.8516 45.8948 64.5415 46.2405 69.0521C46.5611 73.5816 47.5004 79.8092 48.1741 81.7861C50.3308 87.4776 59.1264 85.8469 63.0877 84.1923C61.6013 79.6782 60.0993 71.3586 59.498 64.7837C58.9216 58.2055 58.7796 51.494 58.7183 46.5242C58.6728 45.0593 58.5438 43.7567 58.3302 42.5729C57.421 37.9243 54.0825 37.1902 49.9767 37.5481C47.5435 37.7684 46.0451 38.1333 43.7011 39.2631C44.452 40.9395 44.5189 41.9383 42.9082 45.9035C39.945 53.1079 37.1029 60.4086 34.7567 67.8662C33.3683 60.8956 32.6713 50.8114 30.3645 44.4818C28.9612 40.6662 25.7124 39.8888 21.9998 40.1988C19.4265 40.4239 17.3618 41.0387 14.9272 42.2618C15.2582 42.8898 15.9362 44.5414 15.4088 46.2362C13.3055 52.7299 8.93672 61.0976 5.55883 69.7518C2.24595 78.3058 -0.00624484 87.1698 0.908883 94.4895C1.62495 100.579 8.15554 104.927 15.9977 102.308C14.5138 95.7528 14.479 88.3655 15.2611 80.959C16.0199 73.5519 17.7996 66.104 19.4253 59.3275C20.1853 64.8119 21.9617 74.914 23.0626 79.6781C24.1623 84.4207 24.8207 88.6981 29.0445 89.9003C32.5779 90.8873 36.4836 90.132 39.8535 88.4716C37.2553 81.583 42.876 64.619 45.8201 57.2481L45.8202 57.2482Z" fill="#222B7B"/>
<path d="M91.1101 75.0656C88.7547 75.9462 81.6491 76.5609 77.4524 75.9903C77.4305 75.9443 76.8646 66.8892 76.8306 66.3054C79.8523 66.308 83.4318 67.4195 86.2699 66.2967C88.8107 65.3082 88.7437 61.7265 88.3085 59.4121C84.5838 60.4587 80.5106 60.2158 76.6281 60.3504C76.5904 59.5351 76.3117 54.4394 75.8629 51.3803C76.8841 51.3184 81.7081 51.979 84.0555 51.9369C89.6599 51.8311 89.5338 48.8759 88.9233 44.7676C87.2597 45.25 85.1548 45.7177 78.5438 45.534C73.1948 45.392 66.8285 44.4954 61.8702 46.5967C64.2387 49.1362 64.132 55.9881 64.1612 61.3814C64.1912 66.7754 64.9545 80.6433 66.781 83.7682C71.9773 83.1154 83.9804 83.1882 87.3039 83.2475C88.4479 83.2577 89.28 83.0535 89.8509 82.6287C91.8044 81.2021 91.3132 77.2127 91.1102 75.0656L91.1101 75.0656Z" fill="#222B7B"/>
<path d="M106.273 49.638C105.109 43.7166 96.9546 44.0225 92.3141 44.9144C94.7419 55.99 95.7553 66.7264 97.6473 78.1046C98.7815 84.8285 105.926 86.3369 111.612 85.2855C110.544 83.5955 110.738 82.0994 111.042 81.5011C114.661 73.747 120.704 64.8281 124.741 57.3012C126.408 54.1696 127.65 51.6811 127.843 50.2363C128.058 48.0895 126.852 46.9744 124.945 46.4986C122.85 45.9468 121.099 45.9577 118.98 46.2985C119.575 49.1141 118.957 52.196 117.992 55.0765C116.107 60.7644 110.835 68.1283 108.488 73.6639C107.441 66.3409 107.37 56.3101 106.273 49.6379L106.273 49.638Z" fill="#222B7B"/>
<path d="M129.777 69.4291C129.879 69.2066 136.56 58.161 136.56 58.161L138.108 67.0744C135.251 66.9592 131.766 68.2532 129.777 69.4291ZM141.275 91.2546C142.251 98.3582 150.153 98.0849 155.457 97.0584L151.196 76.1101C154.2 73.3588 157.045 70.3278 158.297 66.2228C155.752 67.6351 152.271 68.2532 149.338 68.3645L146.563 54.6941C145.144 47.698 142.808 46.4189 137.245 46.2611C136.428 46.2371 135.582 46.2733 134.763 46.3688C133.919 46.4314 133.042 46.5547 132.089 46.7362C133.222 48.7882 132.913 50.5917 132.552 51.2924C127.981 60.614 123.936 65.7617 118.956 74.7682C116.852 78.5566 115.273 81.8167 114.993 83.5319C114.636 86.0893 115.92 87.4448 118.038 88.0355C120.371 88.6855 122.376 88.67 124.789 88.2755C124.382 85.5499 124.904 82.3246 125.769 79.477C129.175 79.3921 134.679 80.397 138.367 80.4556L139.846 80.4435C140.033 82.3561 141.08 89.6322 141.275 91.2546H141.275Z" fill="#222B7B"/>
<path fill-rule="evenodd" clip-rule="evenodd" d="M47.0435 52.7677C47.1235 57.1985 47.1196 77.2095 49.7912 80.6792C49.7419 80.5621 49.69 80.4234 49.634 80.284C47.0036 73.0949 48.7383 56.5807 48.6081 48.7681L47.0435 52.7677V52.7677Z" fill="url(#paint0_linear)"/>
<path d="M140.944 44.6605L141.996 39.013C142.009 38.8827 142.086 38.8223 142.232 38.8355L143.424 38.9481C143.556 38.9606 143.612 39.0346 143.602 39.1652L142.552 44.8124C142.537 44.9587 142.448 45.0232 142.29 45.0082L141.111 44.8969C140.986 44.8849 140.931 44.8066 140.944 44.6605V44.6605ZM139.175 42.1456C139.163 42.2689 139.142 42.3889 139.112 42.4995C139.084 42.6136 139.044 42.7213 138.99 42.8292C138.938 42.9343 138.88 43.0297 138.817 43.1121C138.756 43.1919 138.682 43.2754 138.595 43.3573C138.316 43.6256 137.969 43.739 137.556 43.7006C137.358 43.6812 137.225 43.6321 137.16 43.5542C137.127 43.5128 137.105 43.4572 137.089 43.3895C137.077 43.3229 137.075 43.234 137.086 43.1289C137.137 42.8852 137.239 42.6517 137.383 42.4289L137.524 42.2433L137.853 41.9067C138.03 41.7419 138.201 41.6087 138.363 41.5139C138.496 41.4441 138.633 41.3991 138.783 41.3807C138.922 41.3943 139.035 41.4503 139.122 41.5527C139.184 41.6592 139.208 41.7953 139.192 41.9582L139.175 42.1456ZM137.919 38.6477C137.925 38.5881 137.92 38.5328 137.9 38.4786C137.886 38.4738 137.873 38.4695 137.871 38.4647L137.763 38.4132L136.563 38.2997C136.409 38.2846 136.327 38.3502 136.314 38.4966L135.695 41.7946L135.606 42.3889C135.535 43.137 135.647 43.6984 135.945 44.0757C136.241 44.4511 136.789 44.6774 137.583 44.7524C138.242 44.8161 138.853 44.6301 139.424 44.1986C140.035 43.7514 140.418 43.118 140.57 42.2978L140.616 42.0289L140.638 41.7991C140.689 41.2728 140.626 40.853 140.449 40.542C140.365 40.3908 140.249 40.2692 140.099 40.1803C139.953 40.0907 139.77 40.0361 139.554 40.0172C139.195 39.9817 138.79 40.135 138.341 40.4775C137.959 40.7574 137.642 41.1055 137.383 41.5224L137.919 38.6477L137.919 38.6477ZM130.83 43.0196L131.099 43.1111L131.432 43.1575C132.115 43.2105 132.648 42.9391 133.034 42.3446C133.336 41.8667 133.519 41.23 133.579 40.4354L133.597 40.2162C133.604 40.1269 133.604 40.0541 133.598 39.9944C133.592 39.9381 133.573 39.874 133.537 39.8027C133.505 39.6929 133.42 39.6325 133.287 39.6219C133.211 39.6157 133.133 39.627 133.055 39.6552C132.977 39.683 132.897 39.7291 132.812 39.7954C132.766 39.8174 132.646 39.9406 132.445 40.1628C132.239 40.3842 132.06 40.6053 131.899 40.8223C131.736 41.0389 131.581 41.2713 131.427 41.5165C131.396 41.5769 131.353 41.6542 131.303 41.7526C131.251 41.8502 131.18 42.0061 131.09 42.2173C130.996 42.4574 130.908 42.7238 130.83 43.0196ZM131.268 40.456C131.474 39.9875 131.689 39.5886 131.914 39.2567C132.141 38.928 132.379 38.6631 132.632 38.4688C133.03 38.1559 133.481 38.0186 133.983 38.0566C134.505 38.097 134.861 38.3249 135.055 38.7414C135.13 38.9225 135.183 39.123 135.212 39.3448C135.24 39.5656 135.246 39.8129 135.226 40.0885L135.205 40.3494L135.164 40.5998C135.078 41.1132 134.948 41.5761 134.775 41.9889C134.601 42.4036 134.377 42.7864 134.099 43.1406C133.771 43.559 133.409 43.862 133.014 44.0563C132.624 44.2496 132.197 44.3286 131.741 44.2942C131.507 44.2755 131.327 44.2455 131.201 44.2049L130.986 44.1438C130.892 44.1167 130.787 44.0574 130.676 43.9667L130.274 46.3267C130.243 46.4709 130.159 46.538 130.028 46.528L128.847 46.4366C128.715 46.4271 128.655 46.348 128.666 46.2027L130.042 38.0929C130.051 37.9545 130.132 37.8894 130.278 37.8997L131.459 37.9907C131.598 38.0017 131.66 38.0783 131.65 38.2166L131.268 40.456V40.456ZM127.663 38.8442L127.322 38.71L126.932 38.6316C126.344 38.5873 125.858 38.8501 125.474 39.4224C125.4 39.5362 125.332 39.6563 125.269 39.7811C125.205 39.907 125.144 40.0545 125.08 40.2199C124.972 40.5101 124.904 40.8233 124.876 41.1626L124.871 41.2494C124.865 41.3236 124.856 41.3742 124.839 41.4023L124.827 41.5575C124.812 41.7339 124.82 41.8813 124.858 42.0003C124.895 42.0969 124.989 42.1496 125.129 42.1599C125.48 42.1881 125.982 41.7247 126.632 40.7714C127.176 39.981 127.518 39.3376 127.663 38.8442H127.663ZM127.098 41.3562C126.847 42.0215 126.515 42.5683 126.103 42.9987C125.584 43.5341 125.009 43.776 124.379 43.7273C123.921 43.6922 123.593 43.4817 123.386 43.0967C123.345 43.0174 123.309 42.9291 123.273 42.8306C123.241 42.7315 123.216 42.6236 123.199 42.5043C123.183 42.3875 123.175 42.2686 123.17 42.1493C123.167 42.0325 123.171 41.9091 123.183 41.7793L123.196 41.5659L123.237 41.3325C123.318 40.8259 123.444 40.3604 123.609 39.9359C123.777 39.5113 123.988 39.1198 124.245 38.7589C124.893 37.8411 125.692 37.4191 126.643 37.4916C126.998 37.5183 127.389 37.6486 127.816 37.8781C127.826 37.7727 127.881 37.7174 127.983 37.7141L129.161 37.8052C129.292 37.8148 129.353 37.8931 129.342 38.0373L128.392 43.6907C128.381 43.8389 128.293 43.9055 128.134 43.893L126.91 43.7994C126.779 43.7892 126.719 43.7104 126.731 43.5659L127.098 41.3562L127.098 41.3562ZM115.84 39.5417C116.093 38.8878 116.423 38.3172 116.833 37.8342C117.089 37.537 117.359 37.3185 117.633 37.1791C117.912 37.04 118.206 36.9803 118.52 36.9994C118.874 37.0203 119.132 37.1494 119.291 37.384C119.37 37.4993 119.428 37.6336 119.468 37.7888C119.508 37.9432 119.522 38.1164 119.51 38.3099L119.476 38.5503L119.291 39.7467C119.339 39.649 119.387 39.5491 119.436 39.4495C119.503 39.3178 119.58 39.1681 119.678 39.0023C119.737 38.8933 119.783 38.8051 119.819 38.7359C119.857 38.6664 119.89 38.6166 119.915 38.5855C120.178 38.143 120.459 37.8089 120.76 37.5835C121.133 37.3039 121.541 37.1787 121.991 37.205C122.344 37.2256 122.604 37.365 122.771 37.6223C122.912 37.8374 122.97 38.1397 122.951 38.5248L122.911 38.796L122.235 43.279C122.227 43.425 122.145 43.4939 121.983 43.4832L120.756 43.4111C120.626 43.4041 120.565 43.3262 120.573 43.1806L121.107 39.5268L121.159 39.2014C121.167 39.0518 121.094 38.9649 120.933 38.9423C120.78 38.9339 120.616 39.0192 120.445 39.2032L120.087 39.6863C119.888 39.9717 119.708 40.2521 119.55 40.5269C119.395 40.8047 119.261 41.0652 119.155 41.3123C118.955 41.8133 118.84 42.3788 118.8 43.0107C118.789 43.1988 118.704 43.2896 118.542 43.28L117.319 43.2076C117.187 43.1988 117.124 43.1209 117.132 42.9753L117.679 39.3017L117.719 38.9975C117.706 38.8464 117.628 38.7601 117.482 38.7373C117.311 38.7278 117.122 38.8339 116.927 39.0583L116.529 39.6315L115.828 40.8201C115.564 41.3555 115.408 42.0402 115.358 42.8702C115.351 43.017 115.264 43.0854 115.105 43.0755L113.921 43.0052C113.796 42.9983 113.74 42.9214 113.75 42.7747L114.598 37.1055C114.607 36.9664 114.687 36.8998 114.832 36.9086L116.025 36.9789C116.157 36.9865 116.219 37.0624 116.21 37.2014L115.84 39.5417L115.84 39.5417ZM109.872 39.7211L109.829 39.6332C109.845 39.5549 109.879 39.4942 109.928 39.4492L112.326 37.0012C112.395 36.9368 112.483 36.9061 112.593 36.9094L114.006 36.9686C114.076 36.9727 114.118 36.9957 114.139 37.0389C114.135 37.0898 114.098 37.1542 114.028 37.234L111.589 39.6157L113.127 42.7608C113.132 42.7717 113.142 42.797 113.153 42.8351C113.163 42.8713 113.171 42.9058 113.175 42.9346C113.173 43.0316 113.106 43.077 112.973 43.0715L111.469 43.0082C111.354 43.0034 111.279 42.9643 111.244 42.8918L109.872 39.7211V39.7211ZM107.73 42.6313L108.483 36.9573C108.51 36.8454 108.581 36.7747 108.7 36.7465L109.895 36.797C110.027 36.8032 110.088 36.8787 110.084 37.0246L109.333 42.6993C109.326 42.845 109.245 42.9149 109.09 42.9097L107.91 42.8596C107.784 42.8548 107.723 42.7784 107.73 42.6313ZM104.46 39.1845C104.898 39.2032 105.294 39.1556 105.651 39.0404C106.128 38.883 106.373 38.6162 106.389 38.2451C106.402 37.87 106.222 37.6738 105.843 37.6589C105.473 37.6435 105.151 37.8023 104.884 38.1387C104.721 38.3483 104.577 38.6949 104.46 39.1845ZM104.312 40.2678C104.298 40.673 104.404 41.0144 104.634 41.2966C104.868 41.5392 105.207 41.6691 105.649 41.687C105.773 41.6921 105.887 41.6904 105.991 41.6801C106.09 41.6684 106.216 41.6475 106.37 41.6102L107.147 41.3749C107.238 41.3789 107.279 41.4312 107.274 41.5363L107.158 42.3769C107.149 42.598 106.86 42.7546 106.292 42.8461L105.709 42.8965L105.071 42.9072C104.325 42.8757 103.745 42.6598 103.332 42.2645C102.918 41.8674 102.725 41.2954 102.756 40.5449L102.764 40.3568L102.794 40.1489C102.859 39.6585 102.971 39.2083 103.138 38.801C103.303 38.393 103.524 38.0175 103.798 37.675C104.417 36.8888 105.207 36.5167 106.167 36.5558C106.42 36.5668 106.649 36.6013 106.849 36.6609C107.05 36.7175 107.228 36.8061 107.377 36.9236C107.709 37.1813 107.868 37.53 107.849 37.9754L107.84 38.1492C107.824 38.5218 107.702 38.8633 107.472 39.1718C107.356 39.3174 107.223 39.4488 107.073 39.5685C106.921 39.6874 106.743 39.7928 106.538 39.8887C106.231 40.0259 105.887 40.1288 105.51 40.1961C105.135 40.2627 104.735 40.2857 104.312 40.2678V40.2678ZM102.684 36.7798C102.687 36.633 102.618 36.5594 102.479 36.5551L101.349 36.5269C101.266 36.5247 101.194 36.5515 101.126 36.6016C101.119 36.6173 101.113 36.633 101.111 36.6499C101.095 36.6938 101.081 36.7297 101.071 36.7623L100.828 38.9244L98.9013 38.876L99.153 36.6938C99.1537 36.6327 99.1446 36.5774 99.123 36.5266C99.1043 36.5225 99.0908 36.5182 99.0871 36.5141L98.9808 36.4687L97.7862 36.4406C97.6337 36.4369 97.5555 36.5082 97.5511 36.6547L96.8942 42.3417C96.8902 42.4874 96.9508 42.5616 97.0829 42.5642L98.2686 42.5942C98.4156 42.5972 98.4917 42.5273 98.4932 42.3802L98.7602 40.0581L100.693 40.1053L100.427 42.4267C100.428 42.4943 100.436 42.5503 100.459 42.5942L100.614 42.6514L101.804 42.6802C101.951 42.6839 102.028 42.6129 102.031 42.4662L102.684 36.7798ZM91.3223 40.0127C91.2001 40.3758 91.064 40.7081 90.9101 41.0053C90.7557 41.3021 90.5776 41.5721 90.3764 41.8126C89.8677 42.4274 89.2869 42.7326 88.6322 42.7286C88.3038 42.7257 88.0431 42.6221 87.8521 42.4171C87.6612 42.2126 87.5669 41.9359 87.5698 41.5897L87.5932 41.3697L88.0533 36.6725C88.0558 36.5254 88.1319 36.4537 88.2852 36.4533L89.513 36.4636C89.645 36.4636 89.7068 36.5364 89.7083 36.6825L89.3473 40.3794L89.3282 40.4819L89.344 40.853C89.344 40.9054 89.4025 40.932 89.5235 40.9332C89.6614 40.9349 89.8443 40.8245 90.0772 40.6045C90.1826 40.4915 90.2916 40.3513 90.4042 40.1844C90.5202 40.016 90.6457 39.8119 90.7879 39.5699C91.1097 39.0176 91.3318 38.5464 91.4558 38.1543C91.5164 37.9604 91.5611 37.7466 91.5962 37.511C91.6284 37.2754 91.6467 37.0229 91.6481 36.7501C91.6492 36.5683 91.7293 36.4782 91.8865 36.4794L93.0598 36.487C93.193 36.4881 93.2589 36.5617 93.257 36.7084L92.6963 42.4142C92.6981 42.5609 92.6155 42.633 92.4549 42.632L91.2802 42.6246C91.1559 42.6236 91.0948 42.55 91.0948 42.4028L91.3223 40.0127L91.3223 40.0127ZM81.8072 40.1266C81.6971 40.4936 81.5735 40.8311 81.4291 41.1325C81.2861 41.436 81.1178 41.7115 80.924 41.9582C80.4379 42.5913 79.8693 42.9163 79.216 42.935C78.8864 42.9441 78.6228 42.8479 78.4224 42.6507C78.2249 42.4533 78.1213 42.1793 78.1115 41.8334L78.1265 41.6131L78.4242 36.902C78.4184 36.7553 78.4933 36.6806 78.6473 36.6758L79.8751 36.6418C80.006 36.6378 80.0747 36.7091 80.0781 36.8552L79.8451 40.5624L79.8312 40.6652L79.8583 41.0349C79.8612 41.0872 79.9212 41.1132 80.0415 41.1095C80.179 41.1062 80.3579 40.9885 80.5835 40.7612C80.6863 40.6459 80.7887 40.5013 80.897 40.3293C81.0026 40.158 81.1255 39.9501 81.2587 39.7031C81.5608 39.1399 81.766 38.6602 81.8753 38.2642C81.9295 38.0683 81.9664 37.8539 81.9923 37.6168C82.0183 37.3793 82.0274 37.1274 82.0183 36.8541C82.0131 36.6725 82.0914 36.5793 82.2484 36.5749L83.4209 36.5423C83.5519 36.539 83.6225 36.61 83.6254 36.756L83.2651 42.4783C83.2702 42.625 83.189 42.7 83.0285 42.7051L81.8592 42.7381C81.7327 42.7414 81.6676 42.6696 81.6639 42.5233L81.8072 40.1266L81.8072 40.1266ZM74.1495 39.776L74.099 39.6918C74.107 39.6128 74.1367 39.5498 74.1857 39.5015L76.4068 36.8918C76.4683 36.8226 76.556 36.7853 76.6658 36.7824L78.0804 36.7421C78.1484 36.7403 78.1927 36.7608 78.2165 36.8032C78.2161 36.8541 78.1854 36.9211 78.1184 37.0052L75.8538 39.5516L77.6046 42.5818C77.6116 42.5924 77.6232 42.6155 77.6349 42.6546C77.6499 42.6898 77.6595 42.7235 77.6693 42.7527C77.6708 42.849 77.6071 42.8988 77.4751 42.9013L75.9708 42.9448C75.8549 42.9482 75.7767 42.9134 75.7372 42.8428L74.1495 39.776L74.1495 39.776ZM72.2148 42.8303L72.5703 37.1161C72.5882 37.0023 72.6547 36.9273 72.7714 36.8914L73.9666 36.8581C74.0983 36.8545 74.1659 36.9251 74.1696 37.0711L73.8156 42.7849C73.8211 42.931 73.7461 43.0074 73.5917 43.0112L72.4085 43.0429C72.2824 43.0466 72.2188 42.9763 72.2148 42.8303V42.8303ZM69.9464 39.8718L69.9329 39.65L69.9238 39.4909C69.8982 39.088 69.8173 38.7812 69.6835 38.5716C69.509 38.3015 69.2684 38.177 68.9604 38.1969C68.5438 38.2232 68.2385 38.5038 68.0446 39.0334C67.9491 39.3661 67.8768 39.8507 67.8325 40.487L67.8241 40.7066L67.839 40.9397C67.8646 41.3595 67.9568 41.7031 68.1141 41.9692C68.2721 42.2177 68.5167 42.33 68.8427 42.3099C69.2439 42.2847 69.5434 42.027 69.7431 41.5381C69.8345 41.2604 69.9018 40.7047 69.9464 39.8718V39.8718ZM71.6113 39.8799C71.597 40.3746 71.5326 40.8201 71.4214 41.2153C71.3121 41.6116 71.1416 41.9732 70.9142 42.2989C70.4241 43.0352 69.7233 43.4312 68.8101 43.4894C68.0303 43.5381 67.4071 43.3559 66.9477 42.9412C66.4876 42.5247 66.2312 41.926 66.1823 41.1469L66.1691 40.9358L66.1775 40.7044C66.1676 40.5621 66.1632 40.4321 66.1632 40.3135C66.1606 40.1961 66.168 40.0833 66.1838 39.9798C66.2027 39.7537 66.2544 39.5183 66.338 39.2772C66.4526 38.8789 66.6427 38.5002 66.9061 38.1397C67.3906 37.4433 68.0793 37.066 68.9658 37.0097C69.7541 36.9606 70.3791 37.1484 70.8392 37.5743C71.2989 37.9995 71.5546 38.6257 71.6054 39.4495L71.623 39.7127L71.6113 39.8799L71.6113 39.8799ZM65.8447 42.1716L65.8501 43.0529C65.8655 43.2391 65.6227 43.4129 65.1216 43.5743L64.5536 43.7171L64.035 43.8063C63.2747 43.8682 62.6763 43.705 62.2403 43.3164C61.8033 42.9288 61.5576 42.3996 61.503 41.7302L61.4767 41.4085C61.4654 41.2662 61.4599 41.1388 61.457 41.0232C61.4558 40.9097 61.4635 40.7948 61.4778 40.6832C61.495 40.4728 61.5389 40.2309 61.6138 39.9571C61.7243 39.5531 61.9054 39.1494 62.1559 38.745C62.6774 37.9047 63.4279 37.4433 64.414 37.3643C64.7175 37.3394 65.0376 37.3566 65.3732 37.4148C65.709 37.4718 65.8827 37.5729 65.8941 37.7185L65.9061 37.8572C65.9112 37.9249 65.9087 37.9875 65.8985 38.0475L65.8918 38.6115C65.8985 38.6975 65.8542 38.7443 65.758 38.7527C65.6758 38.7596 65.5276 38.7176 65.3125 38.629C65.0993 38.5409 64.8938 38.5045 64.7025 38.52C64.1755 38.562 63.7648 38.86 63.467 39.4111C63.2824 39.7807 63.1752 40.3169 63.1455 41.0239C63.1639 41.2552 63.196 41.4513 63.2414 41.6175C63.2879 41.7833 63.3562 41.9304 63.4495 42.0585C63.6642 42.4058 63.9579 42.5661 64.3316 42.5357L64.6194 42.502C64.6744 42.4904 64.7321 42.4739 64.7888 42.4567C64.8488 42.4373 64.9183 42.4061 65.0005 42.3648L65.728 42.0468C65.7657 42.0442 65.8059 42.0849 65.8447 42.1716Z" fill="#DA251D"/>
<path fill-rule="evenodd" clip-rule="evenodd" d="M24.4347 97.9246C51.2513 90.0176 93.9576 82.0227 136.056 94.6558C140.31 95.9327 138.698 101.107 134.649 99.8434C100.363 89.1272 63.2796 89.66 25.2343 99.5422C23.8152 99.9111 23.2315 99.612 23.0888 99.3878C22.9337 99.1429 22.7721 98.4157 24.4347 97.9246L24.4347 97.9246Z" fill="#222B7B"/>
<path fill-rule="evenodd" clip-rule="evenodd" d="M94.9439 89.5333C96.082 88.6949 97.4261 88.2891 98.9479 88.378C99.4533 88.4094 99.9541 88.4889 100.438 88.6363C100.94 88.7898 101.412 89.0308 101.82 89.3625C102.766 90.1258 103.209 91.197 103.138 92.4062L103.122 92.6986C103.067 93.6388 102.733 94.5036 102.15 95.2438C101.875 95.593 101.551 95.8982 101.198 96.1665C101.054 96.277 100.902 96.3795 100.747 96.475C101.631 96.6788 102.195 97.5158 102.058 98.4541L101.849 99.8511C101.641 101.265 100.243 101.821 98.986 101.908L97.9641 101.978L96.8431 101.976C95.3539 101.974 93.9494 101.479 92.8763 100.426C92.85 100.399 92.8219 100.373 92.7948 100.345C92.2974 100.951 91.4562 101.268 90.6688 101.395L89.649 101.559L88.7197 101.638C87.1807 101.768 85.7295 101.267 84.6469 100.166C84.4231 100.97 83.7384 101.507 82.8449 101.533L80.8667 101.588C80.5119 101.599 80.1856 101.515 79.9099 101.361C79.6173 101.581 79.2501 101.718 78.8346 101.744L76.8856 101.866C76.2412 101.908 75.6812 101.64 75.3268 101.193C74.5387 101.855 73.5969 102.278 72.4968 102.349C71.5762 102.405 70.7087 102.148 70.028 101.516C69.8013 101.305 69.6071 101.07 69.4502 100.815L69.4381 101.942C69.4305 102.604 69.4027 103.219 69.1671 103.849C68.9268 104.489 68.5431 105.045 68.0512 105.518C67.0977 106.435 65.8758 106.864 64.5745 106.97C64.0578 107.011 63.5395 107.01 63.0216 106.969C61.8421 106.872 60.5943 106.301 60.6104 104.921L60.6195 104.175L60.625 103.551C60.6301 102.741 61.1184 102.074 61.8765 101.795L62.1193 101.704L62.9244 101.69L63.5008 101.876C63.5099 101.879 63.5202 101.884 63.5307 101.888C63.5922 101.774 63.6097 101.626 63.6123 101.504L63.718 91.1315C63.722 90.7304 63.8285 90.3659 64.0172 90.0629C63.7483 89.7182 63.598 89.2874 63.5607 88.8267C63.5154 88.2664 63.4894 87.5923 63.6902 87.0601C64.0479 86.1167 64.9074 85.6438 65.8795 85.5648L67.1881 85.4597C67.7433 85.4163 68.2977 85.4824 68.7638 85.7983C69.3621 86.1763 69.6605 86.8428 69.6733 87.5435L69.689 88.4281C69.6986 88.9481 69.5339 89.4286 69.2457 89.8476C69.2871 89.911 69.3262 89.9779 69.3595 90.0464C69.6273 89.3987 70.2226 88.9599 70.998 88.9112L73.0388 88.7838C74.0321 88.7213 74.8357 89.3833 74.9871 90.3164L75.196 90.2909C75.2782 89.3379 75.9698 88.5991 76.9833 88.5342L78.9353 88.412C79.1773 88.397 79.407 88.424 79.6217 88.4892C79.5525 88.274 79.5113 88.038 79.5039 87.7873C79.4886 87.2241 79.4988 86.5493 79.7274 86.0277C80.1297 85.1124 81.0031 84.6785 81.9719 84.6513L83.229 84.6155C83.8021 84.6009 84.362 84.7147 84.8284 85.0605C85.4036 85.4853 85.6984 86.15 85.675 86.8596L85.6443 87.709C85.6289 88.2436 85.4245 88.7461 85.0778 89.1337C85.1523 89.2643 85.2083 89.403 85.2493 89.5516L85.8747 89.5414C87.0392 88.4819 88.4904 87.9403 90.1659 87.9531C90.8278 87.9571 91.4851 88.0551 92.1233 88.2228C92.869 88.4182 93.5775 88.808 93.9015 89.4616C94.107 89.4696 94.2647 89.4799 94.3598 89.4945C94.5225 89.5168 94.7237 89.5282 94.9439 89.5333L94.9439 89.5333Z" fill="#0C1C8C"/>
<path d="M95.9378 94.2319C96.6649 94.2747 97.3284 94.207 97.9274 94.0254C98.7226 93.777 99.1403 93.3411 99.1757 92.7233C99.2133 92.0994 98.9141 91.7667 98.2759 91.7287C97.6527 91.6917 97.1188 91.9508 96.6751 92.5012C96.3914 92.8445 96.147 93.4187 95.9378 94.2319ZM95.6632 96.0325C95.6218 96.7051 95.7901 97.2748 96.1671 97.7536C96.5479 98.1638 97.1096 98.39 97.8462 98.4327C98.2186 98.4559 98.618 98.4178 99.0393 98.3249L100.349 97.956C100.491 97.964 100.555 98.0547 100.546 98.2282L100.338 99.6262C100.317 99.9951 99.8314 100.246 98.8813 100.382L97.9128 100.45L96.8481 100.448C95.6061 100.375 94.6402 100.002 93.946 99.3356C93.6139 99.0004 93.3729 98.592 93.2237 98.1158C93.0719 97.6405 93.0174 97.0838 93.0536 96.4485L93.0708 96.1353L93.137 95.7898C93.2566 94.9726 93.4603 94.2275 93.7482 93.5549C94.0334 92.8785 94.4138 92.26 94.8782 91.6983C95.9298 90.4068 97.2556 89.8085 98.8578 89.9043C99.2777 89.9295 99.6569 89.9944 99.9876 90.0972C100.319 90.1985 100.613 90.3511 100.861 90.551C101.406 90.9905 101.657 91.5761 101.613 92.3157L101.597 92.607C101.561 93.2248 101.344 93.7901 100.951 94.2989C100.761 94.5363 100.534 94.7515 100.276 94.9481C100.022 95.1409 99.7225 95.3111 99.3801 95.4655C98.8619 95.684 98.2855 95.8457 97.6578 95.9457C97.0284 96.0456 96.3624 96.0727 95.6631 96.0324L95.6632 96.0325ZM91.8321 97.6647L91.7099 99.1271C91.7099 99.4381 91.2791 99.6906 90.4272 99.886L89.4639 100.041L88.5913 100.115C87.3218 100.105 86.3511 99.748 85.6841 99.0402C85.0162 98.334 84.6845 97.4213 84.6911 96.3014L84.6954 95.7642C84.698 95.5273 84.7028 95.3126 84.7182 95.1222C84.7306 94.9323 84.7598 94.7431 84.8001 94.5608C84.8568 94.2143 84.9683 93.8191 85.1314 93.374C85.3746 92.7215 85.7337 92.0777 86.2045 91.445C87.1927 90.1242 88.5064 89.4691 90.1555 89.4809C90.6595 89.4842 91.1899 89.5577 91.7352 89.7012C92.2878 89.8458 92.5599 90.0397 92.5588 90.2838L92.558 90.5159C92.5573 90.6297 92.5434 90.7325 92.5193 90.8291L92.4238 91.7634C92.4238 91.9095 92.3445 91.9816 92.1828 91.9797C92.045 91.979 91.8025 91.8882 91.463 91.7088C91.1171 91.5332 90.7839 91.4417 90.465 91.4392C89.5824 91.434 88.8594 91.8674 88.2859 92.7388C87.9249 93.3243 87.6699 94.2004 87.5189 95.3675C87.5149 95.7532 87.5413 96.0859 87.5899 96.3684C87.6426 96.6472 87.7369 96.9013 87.8712 97.1274C88.1779 97.7371 88.6425 98.0452 89.2668 98.0485L89.7473 98.0336C89.8431 98.0226 89.9412 98.0046 90.0385 97.983C90.1383 97.9607 90.2591 97.9197 90.402 97.8611L91.6517 97.441C91.7168 97.4417 91.7772 97.516 91.8321 97.6647V97.6647ZM81.0326 87.7432C81.0139 87.1771 81.0469 86.8097 81.1259 86.6439C81.2484 86.3475 81.5465 86.1923 82.0157 86.1784L83.2716 86.1444C83.5653 86.1363 83.7789 86.185 83.9223 86.2915C84.0668 86.3969 84.1384 86.567 84.1487 86.809L84.119 87.6569C84.0894 87.9072 83.9804 88.1027 83.7862 88.2469C83.6919 88.2966 83.5847 88.3372 83.46 88.3676C83.3353 88.3983 83.1959 88.4152 83.0401 88.4189L81.8694 88.4493C81.3267 88.4668 81.0461 88.2307 81.0326 87.7432L81.0326 87.7432ZM80.5092 99.7019L81.0966 90.1502C81.0929 89.9306 81.2114 89.8183 81.4543 89.8109L83.4468 89.755C83.6677 89.7498 83.7774 89.8563 83.7841 90.0751L83.1933 99.6268C83.201 99.8702 83.0712 99.9957 82.8021 100.004L80.8234 100.059C80.6212 100.065 80.5159 99.9453 80.5092 99.7019H80.5092ZM76.5497 95.9984C76.3936 96.615 76.2049 97.1826 75.9826 97.6942C75.7609 98.2066 75.4986 98.6746 75.1874 99.0962C74.4168 100.179 73.4889 100.753 72.4013 100.822C71.8526 100.857 71.4105 100.714 71.0685 100.395C70.7272 100.079 70.536 99.6287 70.4998 99.0534L70.5137 98.6853L70.7339 90.8265C70.7177 90.5824 70.8392 90.454 71.0952 90.4375L73.1341 90.3094C73.354 90.2944 73.4692 90.41 73.486 90.6527L73.3122 96.8368L73.2951 97.0084L73.3639 97.6218C73.3672 97.7092 73.471 97.7488 73.6718 97.7363C73.8982 97.7224 74.1929 97.5171 74.5554 97.1248C74.7164 96.9257 74.8813 96.6797 75.0485 96.3881C75.2185 96.096 75.4087 95.7426 75.6142 95.3232C76.0846 94.3687 76.4001 93.5599 76.5578 92.8931C76.638 92.5656 76.6884 92.2058 76.718 91.8088C76.7443 91.412 76.7451 90.9916 76.7166 90.5378C76.6972 90.2358 76.8197 90.0767 77.0797 90.0602L79.032 89.9373C79.2511 89.9233 79.3688 90.0386 79.3827 90.283L79.1165 99.8268C79.1308 100.071 79.0061 100.201 78.7384 100.218L76.7898 100.341C76.5801 100.354 76.469 100.238 76.4521 99.9957L76.5497 95.9984V95.9984ZM65.0839 88.7042C65.0374 88.1393 65.0517 87.7718 65.1194 87.6001C65.2269 87.299 65.5224 87.1273 66.0019 87.0878L67.3106 86.9835C67.6111 86.9598 67.8182 86.9919 67.9257 87.0775C68.0504 87.1438 68.1239 87.3088 68.1466 87.5723L68.1616 88.4562C68.1433 88.6838 68.0683 88.8836 67.9326 89.0556C67.7973 89.1672 67.5863 89.2367 67.2941 89.2599L65.9994 89.3645C65.8944 89.3722 65.7938 89.3653 65.6852 89.3433C65.5795 89.325 65.476 89.2901 65.3674 89.2441C65.2017 89.1442 65.1044 88.9648 65.0839 88.7042H65.0839ZM68.0307 90.9224L67.9103 101.927C67.951 102.43 67.8928 102.891 67.7381 103.31C67.5794 103.728 67.33 104.098 66.992 104.416C66.3834 105.015 65.5367 105.357 64.453 105.446C64.0247 105.48 63.5903 105.478 63.1448 105.444C62.4967 105.389 62.1617 105.221 62.1383 104.941L62.1477 104.187L62.1529 103.56C62.1408 103.405 62.2228 103.295 62.4041 103.227L62.6971 103.222L63.0292 103.331C63.2991 103.417 63.4916 103.453 63.6096 103.443C64.0741 103.406 64.4377 103.218 64.7043 102.875C64.9672 102.535 65.1147 102.084 65.1391 101.519L65.2474 91.1468C65.2255 90.892 65.3433 90.7525 65.5978 90.7331L67.6536 90.5666C67.884 90.548 68.0094 90.6677 68.0307 90.9224H68.0307Z" fill="#FFF500"/>
<path d="M95.9378 94.2319C96.6649 94.2747 97.3284 94.207 97.9274 94.0254C98.7226 93.777 99.1403 93.3411 99.1757 92.7233C99.2133 92.0994 98.9141 91.7667 98.2759 91.7287C97.6527 91.6917 97.1188 91.9508 96.6751 92.5012C96.3914 92.8445 96.147 93.4187 95.9378 94.2319V94.2319ZM95.6632 96.0325C95.6218 96.7051 95.7901 97.2748 96.1671 97.7536C96.5479 98.1638 97.1096 98.39 97.8462 98.4327C98.2186 98.4559 98.6179 98.4178 99.0393 98.3249L100.349 97.956C100.491 97.964 100.555 98.0547 100.546 98.2282L100.338 99.6262C100.317 99.9951 99.8314 100.246 98.8813 100.382L97.9128 100.45L96.8481 100.448C95.6061 100.375 94.6402 100.002 93.946 99.3356C93.6139 99.0004 93.3729 98.592 93.2237 98.1158C93.0719 97.6405 93.0174 97.0838 93.0536 96.4485L93.0708 96.1353L93.137 95.7898C93.2566 94.9726 93.4603 94.2275 93.7482 93.5549C94.0334 92.8785 94.4138 92.26 94.8782 91.6983C95.9298 90.4068 97.2556 89.8085 98.8578 89.9043C99.2777 89.9295 99.6569 89.9944 99.9876 90.0972C100.319 90.1985 100.613 90.3511 100.861 90.551C101.406 90.9905 101.657 91.5761 101.613 92.3157L101.597 92.607C101.561 93.2248 101.344 93.7901 100.951 94.2989C100.761 94.5363 100.534 94.7515 100.276 94.9481C100.022 95.1409 99.7225 95.3111 99.3801 95.4655C98.8619 95.684 98.2855 95.8457 97.6578 95.9457C97.0284 96.0456 96.3624 96.0727 95.6631 96.0324L95.6632 96.0325ZM91.8321 97.6647L91.7099 99.1271C91.7099 99.4381 91.2791 99.6906 90.4272 99.886L89.4639 100.041L88.5913 100.115C87.3218 100.105 86.3511 99.748 85.6841 99.0402C85.0162 98.334 84.6845 97.4213 84.6911 96.3014L84.6954 95.7642C84.698 95.5273 84.7028 95.3126 84.7182 95.1222C84.7306 94.9323 84.7598 94.7431 84.8001 94.5608C84.8568 94.2143 84.9683 93.8191 85.1314 93.374C85.3746 92.7215 85.7337 92.0777 86.2045 91.445C87.1927 90.1242 88.5064 89.4691 90.1555 89.4809C90.6595 89.4842 91.1899 89.5577 91.7352 89.7012C92.2878 89.8458 92.5599 90.0397 92.5588 90.2838L92.558 90.5159C92.5573 90.6297 92.5434 90.7325 92.5193 90.8291L92.4238 91.7634C92.4238 91.9095 92.3445 91.9816 92.1828 91.9797C92.045 91.979 91.8025 91.8882 91.463 91.7088C91.1171 91.5332 90.7839 91.4417 90.465 91.4392C89.5824 91.434 88.8594 91.8674 88.2859 92.7388C87.9249 93.3243 87.6699 94.2004 87.5189 95.3675C87.5149 95.7532 87.5413 96.0859 87.5899 96.3684C87.6426 96.6472 87.7369 96.9013 87.8712 97.1274C88.1779 97.7371 88.6425 98.0452 89.2668 98.0485L89.7473 98.0336C89.8431 98.0226 89.9412 98.0046 90.0385 97.983C90.1383 97.9607 90.2591 97.9197 90.402 97.8611L91.6517 97.441C91.7168 97.4417 91.7772 97.516 91.8321 97.6647V97.6647ZM81.0326 87.7432C81.0139 87.1771 81.0469 86.8097 81.1259 86.6439C81.2484 86.3475 81.5465 86.1923 82.0157 86.1784L83.2716 86.1444C83.5653 86.1363 83.7789 86.185 83.9223 86.2915C84.0668 86.3969 84.1384 86.567 84.1487 86.809L84.119 87.6569C84.0894 87.9072 83.9804 88.1027 83.7862 88.2469C83.6919 88.2966 83.5847 88.3372 83.46 88.3676C83.3353 88.3983 83.1959 88.4152 83.0401 88.4189L81.8694 88.4493C81.3267 88.4668 81.0461 88.2307 81.0326 87.7432L81.0326 87.7432ZM80.5092 99.7019L81.0966 90.1502C81.0929 89.9306 81.2114 89.8183 81.4543 89.8109L83.4468 89.755C83.6677 89.7498 83.7774 89.8563 83.7841 90.0751L83.1933 99.6268C83.201 99.8702 83.0712 99.9957 82.8021 100.004L80.8234 100.059C80.6212 100.065 80.5159 99.9453 80.5092 99.7019H80.5092ZM76.5497 95.9984C76.3936 96.615 76.2049 97.1826 75.9826 97.6942C75.7609 98.2066 75.4986 98.6746 75.1874 99.0962C74.4168 100.179 73.4889 100.753 72.4013 100.822C71.8526 100.857 71.4105 100.714 71.0685 100.395C70.7272 100.079 70.536 99.6287 70.4998 99.0534L70.5137 98.6853L70.7339 90.8265C70.7177 90.5824 70.8392 90.454 71.0952 90.4375L73.1341 90.3094C73.354 90.2944 73.4692 90.41 73.486 90.6527L73.3122 96.8368L73.2951 97.0084L73.3639 97.6218C73.3672 97.7092 73.471 97.7488 73.6718 97.7363C73.8982 97.7224 74.1929 97.5171 74.5554 97.1248C74.7164 96.9257 74.8813 96.6797 75.0485 96.3881C75.2185 96.096 75.4087 95.7426 75.6142 95.3232C76.0846 94.3687 76.4001 93.5599 76.5578 92.8931C76.638 92.5656 76.6884 92.2058 76.718 91.8088C76.7443 91.412 76.7451 90.9916 76.7166 90.5378C76.6972 90.2358 76.8197 90.0767 77.0797 90.0602L79.032 89.9373C79.2511 89.9233 79.3688 90.0386 79.3827 90.283L79.1165 99.8268C79.1308 100.071 79.0061 100.201 78.7384 100.218L76.7898 100.341C76.5801 100.354 76.469 100.238 76.4521 99.9957L76.5497 95.9984V95.9984ZM65.0839 88.7042C65.0374 88.1393 65.0517 87.7718 65.1194 87.6001C65.2269 87.299 65.5224 87.1273 66.0019 87.0878L67.3106 86.9835C67.6111 86.9598 67.8182 86.9919 67.9257 87.0775C68.0504 87.1438 68.1239 87.3088 68.1466 87.5723L68.1616 88.4562C68.1433 88.6838 68.0683 88.8836 67.9326 89.0556C67.7973 89.1672 67.5863 89.2367 67.2941 89.2599L65.9994 89.3645C65.8944 89.3722 65.7938 89.3653 65.6852 89.3433C65.5795 89.325 65.476 89.2901 65.3674 89.2441C65.2017 89.1442 65.1044 88.9648 65.0839 88.7042H65.0839ZM68.0307 90.9224L67.9103 101.927C67.951 102.43 67.8928 102.891 67.7381 103.31C67.5794 103.728 67.33 104.098 66.992 104.416C66.3834 105.015 65.5367 105.357 64.453 105.446C64.0247 105.48 63.5903 105.478 63.1448 105.444C62.4967 105.389 62.1617 105.221 62.1383 104.941L62.1477 104.187L62.1529 103.56C62.1408 103.405 62.2228 103.295 62.4041 103.227L62.6971 103.222L63.0292 103.331C63.2991 103.417 63.4916 103.453 63.6096 103.443C64.0741 103.406 64.4377 103.218 64.7043 102.875C64.9672 102.535 65.1147 102.084 65.1391 101.519L65.2474 91.1468C65.2255 90.892 65.3433 90.7525 65.5978 90.7331L67.6536 90.5666C67.884 90.548 68.0094 90.6677 68.0307 90.9224H68.0307Z" stroke="#FFF500" stroke-width="0.345235" stroke-linecap="round" stroke-linejoin="round"/>
<path d="M95.9378 94.2319C96.6649 94.2747 97.3284 94.207 97.9274 94.0254C98.7226 93.777 99.1403 93.3411 99.1757 92.7233C99.2133 92.0994 98.9141 91.7667 98.2759 91.7287C97.6527 91.6917 97.1188 91.9508 96.6751 92.5012C96.3914 92.8445 96.147 93.4187 95.9378 94.2319ZM95.6632 96.0325C95.6218 96.7051 95.7901 97.2748 96.1671 97.7536C96.5479 98.1638 97.1096 98.39 97.8462 98.4327C98.2186 98.4559 98.618 98.4178 99.0393 98.3249L100.349 97.956C100.491 97.964 100.555 98.0547 100.546 98.2282L100.338 99.6262C100.317 99.9951 99.8314 100.246 98.8813 100.382L97.9128 100.45L96.8481 100.448C95.6061 100.375 94.6402 100.002 93.946 99.3356C93.6139 99.0004 93.3729 98.592 93.2237 98.1158C93.0719 97.6405 93.0174 97.0838 93.0536 96.4485L93.0708 96.1353L93.137 95.7898C93.2566 94.9726 93.4603 94.2275 93.7482 93.5549C94.0334 92.8785 94.4138 92.26 94.8782 91.6983C95.9298 90.4068 97.2556 89.8085 98.8578 89.9043C99.2777 89.9295 99.6569 89.9944 99.9876 90.0972C100.319 90.1985 100.613 90.3511 100.861 90.551C101.406 90.9905 101.657 91.5761 101.613 92.3157L101.597 92.607C101.561 93.2248 101.344 93.7901 100.951 94.2989C100.761 94.5363 100.534 94.7515 100.276 94.9481C100.022 95.1409 99.7225 95.3111 99.3801 95.4655C98.8619 95.684 98.2855 95.8457 97.6578 95.9457C97.0284 96.0456 96.3624 96.0727 95.6631 96.0324L95.6632 96.0325ZM91.8321 97.6647L91.7099 99.1271C91.7099 99.4381 91.2791 99.6906 90.4272 99.886L89.4639 100.041L88.5913 100.115C87.3218 100.105 86.3511 99.748 85.6841 99.0402C85.0162 98.334 84.6845 97.4213 84.6911 96.3014L84.6954 95.7642C84.698 95.5273 84.7028 95.3126 84.7182 95.1222C84.7306 94.9323 84.7598 94.7431 84.8001 94.5608C84.8568 94.2143 84.9683 93.8191 85.1314 93.374C85.3746 92.7215 85.7337 92.0777 86.2045 91.445C87.1927 90.1242 88.5064 89.4691 90.1555 89.4809C90.6595 89.4842 91.1899 89.5577 91.7352 89.7012C92.2878 89.8458 92.5599 90.0397 92.5588 90.2838L92.558 90.5159C92.5573 90.6297 92.5434 90.7325 92.5193 90.8291L92.4238 91.7634C92.4238 91.9095 92.3445 91.9816 92.1828 91.9797C92.045 91.979 91.8025 91.8882 91.463 91.7088C91.1171 91.5332 90.7839 91.4417 90.465 91.4392C89.5824 91.434 88.8594 91.8674 88.2859 92.7388C87.9249 93.3243 87.6699 94.2004 87.5189 95.3675C87.5149 95.7532 87.5413 96.0859 87.5899 96.3684C87.6426 96.6472 87.7369 96.9013 87.8712 97.1274C88.1779 97.7371 88.6425 98.0452 89.2668 98.0485L89.7473 98.0336C89.8431 98.0226 89.9412 98.0046 90.0385 97.983C90.1383 97.9607 90.2591 97.9197 90.402 97.8611L91.6517 97.441C91.7168 97.4417 91.7772 97.516 91.8321 97.6647V97.6647ZM81.0326 87.7432C81.0139 87.1771 81.0469 86.8097 81.1259 86.6439C81.2484 86.3475 81.5465 86.1923 82.0157 86.1784L83.2716 86.1444C83.5653 86.1363 83.7789 86.185 83.9223 86.2915C84.0668 86.3969 84.1384 86.567 84.1487 86.809L84.119 87.6569C84.0894 87.9072 83.9804 88.1027 83.7862 88.2469C83.6919 88.2966 83.5847 88.3372 83.46 88.3676C83.3353 88.3983 83.1959 88.4152 83.0401 88.4189L81.8694 88.4493C81.3267 88.4668 81.0461 88.2307 81.0326 87.7432L81.0326 87.7432ZM80.5092 99.7019L81.0966 90.1502C81.0929 89.9306 81.2114 89.8183 81.4543 89.8109L83.4468 89.755C83.6677 89.7498 83.7774 89.8563 83.7841 90.0751L83.1933 99.6268C83.201 99.8702 83.0712 99.9957 82.8021 100.004L80.8234 100.059C80.6212 100.065 80.5159 99.9453 80.5092 99.7019H80.5092ZM76.5497 95.9984C76.3936 96.615 76.2049 97.1826 75.9826 97.6942C75.7609 98.2066 75.4986 98.6746 75.1874 99.0962C74.4168 100.179 73.4889 100.753 72.4013 100.822C71.8526 100.857 71.4105 100.714 71.0685 100.395C70.7272 100.079 70.536 99.6287 70.4998 99.0534L70.5137 98.6853L70.7339 90.8265C70.7177 90.5824 70.8392 90.454 71.0952 90.4375L73.1341 90.3094C73.354 90.2944 73.4692 90.41 73.486 90.6527L73.3122 96.8368L73.2951 97.0084L73.3639 97.6218C73.3672 97.7092 73.471 97.7488 73.6718 97.7363C73.8982 97.7224 74.1929 97.5171 74.5554 97.1248C74.7164 96.9257 74.8813 96.6797 75.0485 96.3881C75.2185 96.096 75.4087 95.7426 75.6142 95.3232C76.0846 94.3687 76.4001 93.5599 76.5578 92.8931C76.638 92.5656 76.6884 92.2058 76.718 91.8088C76.7443 91.412 76.7451 90.9916 76.7166 90.5378C76.6972 90.2358 76.8197 90.0767 77.0797 90.0602L79.032 89.9373C79.2511 89.9233 79.3688 90.0386 79.3827 90.283L79.1165 99.8268C79.1308 100.071 79.0061 100.201 78.7384 100.218L76.7898 100.341C76.5801 100.354 76.469 100.238 76.4521 99.9957L76.5497 95.9984V95.9984ZM65.0839 88.7042C65.0374 88.1393 65.0517 87.7718 65.1194 87.6001C65.2269 87.299 65.5224 87.1273 66.0019 87.0878L67.3106 86.9835C67.6111 86.9598 67.8182 86.9919 67.9257 87.0775C68.0504 87.1438 68.1239 87.3088 68.1466 87.5723L68.1616 88.4562C68.1433 88.6838 68.0683 88.8836 67.9326 89.0556C67.7973 89.1672 67.5863 89.2367 67.2941 89.2599L65.9994 89.3645C65.8944 89.3722 65.7938 89.3653 65.6852 89.3433C65.5795 89.325 65.476 89.2901 65.3674 89.2441C65.2017 89.1442 65.1044 88.9648 65.0839 88.7042H65.0839ZM68.0307 90.9224L67.9103 101.927C67.951 102.43 67.8928 102.891 67.7381 103.31C67.5794 103.728 67.33 104.098 66.992 104.416C66.3834 105.015 65.5367 105.357 64.453 105.446C64.0247 105.48 63.5903 105.478 63.1448 105.444C62.4967 105.389 62.1617 105.221 62.1383 104.941L62.1477 104.187L62.1529 103.56C62.1408 103.405 62.2228 103.295 62.4041 103.227L62.6971 103.222L63.0292 103.331C63.2991 103.417 63.4916 103.453 63.6096 103.443C64.0741 103.406 64.4377 103.218 64.7043 102.875C64.9672 102.535 65.1147 102.084 65.1391 101.519L65.2474 91.1468C65.2255 90.892 65.3433 90.7525 65.5978 90.7331L67.6536 90.5666C67.884 90.548 68.0094 90.6677 68.0307 90.9224H68.0307Z" fill="#FFF500"/>
<path fill-rule="evenodd" clip-rule="evenodd" d="M91.5887 9.75785H91.5709C91.1959 9.75857 90.8383 9.78233 90.4956 9.82995C92.6487 14.6134 91.998 20.3496 89.6642 25.8629C88.9291 27.5953 87.9167 29.1511 86.6809 30.4974L86.8579 30.6988C88.8165 32.8983 91.1082 34.2596 93.9755 34.6219C102.964 35.756 110.479 27.5493 109.392 19.8284C105.17 19.2034 100.514 15.9957 99.7842 10.9999C98.7542 11.035 97.8329 11.1163 97.0254 10.8088C94.8159 10.1157 93.0659 9.75781 91.5887 9.75781L91.5887 9.75785Z" fill="url(#paint1_radial)"/>
<path d="M87.1891 29.9178C88.1953 28.7108 89.0317 27.3531 89.6652 25.8633C91.9272 20.5158 92.609 14.9549 90.68 10.2614C90.8172 10.0723 91.0692 10.1389 91.4002 10.6798C91.9858 11.6447 92.3859 12.7094 92.6521 13.8226C93.5767 17.6883 93.0684 20.982 92.2513 24.7947C91.2978 29.2627 90.717 32.9495 97.5673 33.1174L91.1695 32.9919L87.1891 29.9178L87.1891 29.9178Z" fill="#99CAB1"/>
<path d="M93.9756 34.6216C91.1082 34.2593 88.8165 32.8983 86.8577 30.6984L86.6813 30.4979C87.1019 30.0394 87.4969 29.5559 87.8645 29.0498L87.9099 29.1007C89.8673 31.2994 92.159 32.6597 95.027 33.0227C100.262 33.684 104.997 31.1731 107.823 27.4355C105.233 32.0247 99.9275 35.3733 93.9756 34.6216V34.6216Z" fill="#99CAB1"/>
<path d="M106.127 7.54912L106.09 7.53408C104.673 6.92327 103.185 6.90138 101.593 7.08614C101.242 7.10523 100.446 7.46561 100.537 7.50514C100.339 8.98217 100.385 10.5113 100.878 11.9433C101.595 13.9751 103.162 15.3913 105.009 16.4007C105.094 16.4604 105.205 16.509 105.315 16.5573C107.008 17.3694 110.136 18.0025 112.413 17.817C112.779 17.7643 113.142 17.7335 113.444 17.6534C112.816 17.3009 112.349 16.7019 111.99 16.0962C111.572 15.4375 111.244 14.6364 110.89 13.8239C110.173 12.1083 109.478 10.2718 108.378 9.13704C108.334 9.11868 108.302 9.07334 108.265 9.03268C107.568 8.34614 106.857 7.86935 106.127 7.54911V7.54912Z" fill="#007A3D"/>
<path d="M98.9429 7.03781C98.9419 6.40511 97.5382 6.32751 97.2628 6.70149C97.3371 7.07557 98.2923 7.05544 98.4943 7.02318C98.3483 7.19777 97.4592 7.20732 97.2018 6.99797C97.4179 8.31835 97.5111 9.15387 97.1111 10.359C96.995 10.6972 97.8114 10.9599 97.9731 10.5906C98.4002 9.62411 98.8589 8.7026 98.9429 7.0378V7.03781Z" fill="#E15616"/>
<path fill-rule="evenodd" clip-rule="evenodd" d="M107.298 21.2463C108.228 23.6821 105.824 27.6159 103.93 28.4682C104.974 26.499 104.936 24.5879 104.482 22.3698C103.817 19.1247 106.514 19.1918 107.298 21.2463L107.298 21.2463Z" fill="white"/>
<path fill-rule="evenodd" clip-rule="evenodd" d="M93.7153 10.3647C94.4197 10.8664 94.8425 11.3081 95.2755 11.5932C96.6266 12.4544 97.8846 12.443 99.54 11.3938C97.4257 12.1693 96.7871 11.516 95.702 10.9773C94.8345 10.5711 94.581 10.446 93.7153 10.3648V10.3647Z" fill="white"/>
<path fill-rule="evenodd" clip-rule="evenodd" d="M68.9072 6.6482C68.6505 6.67714 68.3989 6.71044 68.1495 6.74706C67.7384 7.49543 67.2513 8.20324 66.6792 8.85316C64.5934 11.2187 61.7516 12.1176 58.704 12.6051C58.3364 12.6633 58.3642 12.661 58.2545 12.6588C58.2084 12.6578 58.1382 12.6566 58.0039 12.6599L57.7724 12.6643C55.5386 16.2255 55.5494 20.9974 58.2647 26.0686C62.2341 33.4838 72.0274 37.8446 80.3548 33.7711C85.9075 31.056 88.6406 25.2693 88.774 19.3506C88.9094 13.2653 86.279 7.05125 79.6998 4.8913C78.4844 4.48547 77.4245 4.32478 76.4809 4.3252C72.9811 4.3252 71.094 6.53669 68.9072 6.64832L68.9072 6.6482Z" fill="url(#paint2_radial)"/>
<path d="M80.3562 33.7703C72.4724 37.6261 63.2785 33.9254 58.9523 27.2309C63.7116 32.4122 71.6487 34.8562 78.5719 31.4687C84.1229 28.7537 86.8558 22.9673 86.9908 17.0485C87.0624 13.8647 86.3744 10.6456 84.7612 7.99121C87.656 10.9358 88.8674 15.173 88.7745 19.3504C88.6417 25.2688 85.9078 31.0562 80.3563 33.7703L80.3562 33.7703Z" fill="#EB891B"/>
<path fill-rule="evenodd" clip-rule="evenodd" d="M64.0442 14.9177C65.3444 12.8204 64.3832 11.9486 63.1427 12.0935C62.8892 12.1222 62.6507 12.1836 62.4265 12.2718C59.6627 13.3528 59.5215 17.5589 60.377 19.9641C60.7493 21.0133 61.3615 21.9765 62.2568 22.7761C61.6153 20.0365 62.2872 17.7522 64.0442 14.9177L64.0442 14.9177Z" fill="white"/>
<path d="M68.578 2.25497C65.922 2.16234 61.7207 2.75115 58.51 5.61599C61.9951 3.59143 66.5222 2.91921 69.1076 3.04473C68.5458 4.91337 67.6618 6.70545 66.2969 8.13268C61.9849 12.561 52.6088 11.5827 48.1417 7.84833C49.9824 7.49811 51.9944 6.01631 53.2766 4.73068C57.7353 0.258929 61.9445 -1.9756 68.578 2.25496V2.25497Z" fill="#007A3D"/>
<path fill-rule="evenodd" clip-rule="evenodd" d="M67.0523 8.70636C68.0884 8.7879 68.8082 8.98697 69.4326 9.01259C71.3596 9.05761 72.6122 8.22543 73.5672 6.01611C71.9678 8.23062 70.8926 7.94399 69.4494 8.06993C68.3094 8.19877 67.9714 8.23062 67.0523 8.70636V8.70636Z" fill="#E15616"/>
<path d="M69.7013 1.10933C69.9105 0.207951 71.9344 0.782558 72.2058 1.45188C71.9761 1.94671 70.624 1.45229 70.3453 1.30841C70.4934 1.62865 71.7555 2.07514 72.196 1.90314C71.4465 3.67624 70.8485 5.86584 71.0475 8.18865C71.0752 8.72291 69.7718 8.70133 69.7408 8.09788C69.4236 5.4871 69.2675 3.52074 69.7013 1.10934V1.10933Z" fill="#E15616"/>
<path d="M79.6576 10.3129C85.7039 13.3359 84.1945 31.0061 69.5091 32.8645C67.1026 33.1689 74.9243 35.7856 77.9463 34.6296C86.7752 31.2546 89.7277 16.1874 80.6436 9.91251C79.6499 9.22556 78.9185 9.94218 79.6576 10.3128L79.6576 10.3129Z" fill="#EB891B"/>
<path d="M58.1182 32.4402C58.0671 32.1386 58.0228 31.8356 57.9738 31.5376C56.6169 23.4272 53.3329 20.0594 47.8623 18.3003C43.6658 16.9507 39.5615 16.9067 35.372 16.0563C33.3089 15.6372 31.2432 14.943 29.9555 13.624C29.9526 14.3081 30.0813 15.0484 30.2082 15.8333C32.8945 29.4056 43.9186 40.0087 57.7153 33.8429C55.1504 30.6594 49.6028 25.9197 43.4995 23.7862C50.3533 24.7318 55.4404 29.1776 58.1182 32.4402L58.1182 32.4402Z" fill="#68B92E"/>
<path fill-rule="evenodd" clip-rule="evenodd" d="M57.7153 33.8432C55.15 30.6597 49.6029 25.9201 43.4996 23.7861C50.3534 24.7318 55.4404 29.1779 58.1184 32.4405C58.0672 32.1389 58.0229 31.8359 57.9743 31.5381C53.9998 13.7459 41.823 21.2218 33.1869 16.2666C35.4961 27.3283 45.0525 36.267 57.7153 33.8432L57.7153 33.8432Z" fill="url(#paint3_linear)"/>
<path fill-rule="evenodd" clip-rule="evenodd" d="M31.7557 15.6157C42.4627 18.8648 52.9813 17.2242 56.1054 27.0207C51.0143 18.8483 39.8715 19.4174 31.7557 15.6157Z" fill="white"/>
<path d="M30.2082 15.8335C32.8945 29.4052 43.9185 40.0089 57.7152 33.843C45.4163 37.8921 34.1355 27.6487 30.2082 15.8335Z" fill="#4CA277"/>
<path d="M135.451 19.2852C130.467 19.5267 126.379 17.4477 120.36 18.4335C116.145 19.1231 112.358 21.4747 109.973 26.9419C109.628 27.7306 109.369 28.5207 109.063 29.3178C111.94 26.3988 117.723 22.8727 124.211 23.6709C118.129 24.1997 112.213 27.731 109.052 30.7799C120.814 40.8303 136.429 31.6018 139.18 18.285C138.141 18.9452 136.826 19.2185 135.451 19.2852L135.451 19.2852Z" fill="#68B92E"/>
<path d="M109.052 30.7794C120.814 40.83 136.429 31.6014 139.18 18.2847C136.281 29.5949 120.626 38.2811 109.052 30.7794Z" fill="#4CA277"/>
<path fill-rule="evenodd" clip-rule="evenodd" d="M134.412 19.8376C125.261 19.2064 117.437 15.4154 110.535 26.4767C117.608 16.2694 127.117 21.2166 134.412 19.8376Z" fill="white"/>
<path d="M25.2068 35.0714C22.3697 32.5407 19.6464 29.0974 15.0389 29.2174C19.9368 31.8773 21.3329 35.8267 25.6844 37.6196C27.7446 38.4686 31.7443 38.5253 34.6998 36.7673C31.6511 38.5236 27.9304 37.4996 25.2068 35.0714L25.2068 35.0714Z" fill="#66AF8B"/>
<path d="M35.6306 36.132C35.8314 35.9718 36.0241 35.8005 36.2077 35.6172C36.0201 35.8042 35.8259 35.9732 35.6306 36.132Z" fill="#66AF8B"/>
<path d="M35.0105 36.5835C35.0251 36.5738 35.0396 36.5619 35.0542 36.5522C35.0396 36.5612 35.0251 36.5741 35.0105 36.5835Z" fill="#66AF8B"/>
<path d="M24.54 23.9402C23.463 22.8602 22.4523 21.4168 20.6043 21.3594C22.5043 22.5377 22.9717 24.1532 24.6731 24.9711C25.4777 25.3587 27.0713 25.4677 28.2946 24.8346C27.034 25.4625 25.5725 24.9736 24.54 23.9402V23.9402Z" fill="#7FBC9E"/>
<path d="M120.98 14.8447C122.432 13.0247 123.72 10.6664 126.515 10.2661C123.832 12.3751 123.396 14.9039 120.952 16.4326C119.797 17.1558 117.397 17.5891 115.44 16.8363C117.455 17.5762 119.587 16.587 120.98 14.8447L120.98 14.8447Z" fill="#7FBC9E"/>
<path fill-rule="evenodd" clip-rule="evenodd" d="M132.249 34.8004C132.512 35.0679 132.803 35.3 133.114 35.5053C133.182 35.551 133.256 35.581 133.329 35.6246C135.412 36.885 138.237 36.8788 139.703 36.291C142.797 35.0467 143.811 32.2511 147.304 30.3945C144.98 29.2684 142.578 28.7111 140.391 28.7114C136.187 28.7114 132.776 30.7696 132.249 34.8004L132.249 34.8004Z" fill="url(#paint4_linear)"/>
<path d="M140.056 34.4845C142.086 32.7067 144.038 30.2796 147.304 30.3946C143.812 32.2507 142.797 35.0467 139.703 36.2909C138.237 36.8787 135.412 36.885 133.329 35.6245C135.479 36.8795 138.111 36.1874 140.056 34.4845L140.056 34.4845Z" fill="#7FBC9E"/>
<path d="M136.782 68.2067C130.531 68.7794 125.786 72.4676 121.704 77.3518C123.724 75.5762 125.878 74.1796 128.384 73.4447C131.234 72.6396 134.29 72.7845 137.203 72.8361C132.911 73.5032 128.476 74.6477 124.588 76.864C122.629 78.0054 120.993 79.3621 119.268 80.8789C123.18 78.6919 126.787 78.4157 131.081 78.6715C134.567 78.8735 137.888 79.2683 141.371 78.5818C147.737 77.3759 153.144 73.6427 156.812 67.8081C151.199 71.1183 144.481 68.0237 138.42 68.1144C137.879 68.1233 137.334 68.154 136.782 68.2067L136.782 68.2067Z" stroke="#0C1C8C" stroke-width="0.345235" stroke-linecap="round" stroke-linejoin="round"/>
<defs>
<linearGradient id="paint0_linear" x1="48.3975" y1="80.6792" x2="48.3975" y2="48.768" gradientUnits="userSpaceOnUse">
<stop stop-color="#FAFAFD"/>
<stop offset="1" stop-color="#5560AE"/>
</linearGradient>
<radialGradient id="paint1_radial" cx="0" cy="0" r="1" gradientUnits="userSpaceOnUse" gradientTransform="translate(102.626 20.9371) scale(7.27496 7.27953)">
<stop stop-color="#91C81F"/>
<stop offset="1" stop-color="#00A539"/>
</radialGradient>
<radialGradient id="paint2_radial" cx="0" cy="0" r="1" gradientUnits="userSpaceOnUse" gradientTransform="translate(68.8869 18.0679) scale(7.70479 7.70963)">
<stop stop-color="#FFF000"/>
<stop offset="1" stop-color="#F3AE00"/>
</radialGradient>
<linearGradient id="paint3_linear" x1="46.8419" y1="13.8056" x2="44.4605" y2="36.207" gradientUnits="userSpaceOnUse">
<stop stop-color="#68B92E"/>
<stop offset="1" stop-color="#00A13A"/>
</linearGradient>
<linearGradient id="paint4_linear" x1="139.009" y1="28.3945" x2="140.548" y2="37.2013" gradientUnits="userSpaceOnUse">
<stop stop-color="#BBD900"/>
<stop offset="1" stop-color="#00A13A"/>
</linearGradient>
</defs>
</svg>
